<?xml version="1.0" encoding="utf-8"?>
<!-- Generator: Adobe Illustrator 24.1.2, SVG Export Plug-In . SVG Version: 6.00 Build 0)  -->
<svg version="1.1" id="Layer_1" xmlns="http://www.w3.org/2000/svg" xmlns:xlink="http://www.w3.org/1999/xlink" x="0px" y="0px"
	 viewBox="0 0 387 261" style="enable-background:new 0 0 387 261;" xml:space="preserve">
<g>
	<path d="M100.9,175.4c0,25.7-11.4,36.8-29.9,36.8c-15.6,0-28-8.3-40.7-22.2l-30.8,34.3c15.3,18.1,38.1,33.3,72.7,33.3
		c24.1,0,44.1-7,57.8-20.6c13.3-13.3,21-33,21-59.4v-16.5c0-32.8-19.8-62.3-50.2-74.6l0,0V175.4z"/>
	<path d="M356.1,110.2l-24.2,89.7l-17.4-55.8c-6.4-20.5-28.3-34.4-49.7-34.4c-0.1,0.3-0.2,0.6-0.3,1c-0.3,0.9-0.6,1.8-0.8,2.7
		c-0.4,1.4-0.9,2.8-1.3,4.2c-0.6,1.8-1.1,3.7-1.7,5.5c-0.7,2.2-1.3,4.3-2,6.5c-0.7,2.4-1.5,4.9-2.2,7.3c-0.8,2.6-1.6,5.2-2.4,7.8
		c-0.8,2.7-1.7,5.4-2.5,8.1c-0.8,2.7-1.7,5.4-2.5,8.2c-0.8,2.7-1.6,5.3-2.5,8c-0.8,2.5-1.6,5-2.3,7.6c-0.7,2.3-1.4,4.6-2.1,6.9
		c-0.6,2-1.2,4-1.8,6c-0.5,1.6-1,3.2-1.5,4.8c-0.4,1.1-0.7,2.3-1.1,3.4c-0.2,0.6-0.2-0.7-0.3-1.8c-0.1-1.3-0.3-2.5-0.6-3.7
		c-1.1-5.1-2.7-9.9-4.4-14.8c-1.4-3.9-3-7.8-4-11.8C212.1,103.9,189.4,24.7,120.6,4c-6.1-1.9-13-3.5-19.5-3.1v50
		c17.5,0,35.7,11.4,48.3,23.6c17.5,17,23.4,41.4,30.2,64c8.6,28.2,17.2,56.4,25.9,84.5c6.5,21.3,26.1,35.8,48.3,35.8l31.9-90.5
		l17.1,54.5c6.7,21.4,26.5,36,48.9,36l33.7-108.8C391.4,130.2,376.7,110.2,356.1,110.2z"/>
</g>
</svg>
