<?xml version="1.0" encoding="utf-8"?>
<!-- Generator: Adobe Illustrator 24.1.2, SVG Export Plug-In . SVG Version: 6.00 Build 0)  -->
<svg version="1.1" id="Layer_1" xmlns="http://www.w3.org/2000/svg" xmlns:xlink="http://www.w3.org/1999/xlink" x="0px" y="0px"
	 viewBox="0 0 352 480" style="enable-background:new 0 0 352 480;" xml:space="preserve">
<style type="text/css">
	.st0{fill:#FFFFFF;}
</style>
<path class="st0" d="M340,176h-68V96c0-53-43-96-96-96S80,43,80,96v80H12c-6.6,0-12,5.4-12,12v280c0,6.6,5.4,12,12,12l0,0h328
	c6.6,0,12-5.4,12-12l0,0V188C352,181.4,346.6,176,340,176z M234,176H118V95.3c0-32,26-58,58-58s58,26,58,58V176z"/>
</svg>
