<?xml version="1.0" encoding="utf-8"?>
<!-- Generator: Adobe Illustrator 24.1.2, SVG Export Plug-In . SVG Version: 6.00 Build 0)  -->
<svg version="1.1" id="Layer_1" xmlns="http://www.w3.org/2000/svg" xmlns:xlink="http://www.w3.org/1999/xlink" x="0px" y="0px"
	 viewBox="0 0 448 352" style="enable-background:new 0 0 448 352;" xml:space="preserve">
<style type="text/css">
	.st0{fill:none;}
</style>
<g>
	<path class="st0" d="M224,171.7L77.2,57.5L57.5,82.8l156.6,121.8c5.8,4.5,13.9,4.5,19.6,0L390.5,82.8l-19.6-25.3L224,171.7z"/>
	<path d="M233.8,204.6c-5.8,4.5-13.9,4.5-19.6,0L57.5,82.8l19.6-25.3L224,171.7L370.8,57.5l19.6,25.3L233.8,204.6z M432,0H16
		C7.2,0,0,7.2,0,16v320c0,8.8,7.2,16,16,16h416c8.8,0,16-7.2,16-16V16C448,7.2,440.8,0,432,0z"/>
</g>
</svg>
