<?xml version="1.0" encoding="utf-8"?>
<!-- Generator: Adobe Illustrator 24.1.2, SVG Export Plug-In . SVG Version: 6.00 Build 0)  -->
<svg version="1.1" id="Layer_1" xmlns="http://www.w3.org/2000/svg" xmlns:xlink="http://www.w3.org/1999/xlink" x="0px" y="0px"
	 viewBox="0 0 699.9 699.1" style="enable-background:new 0 0 699.9 699.1;" xml:space="preserve">
<style type="text/css">
	.st0{fill:#ADF7B6;}
	.st1{fill:#8FEA97;}
	.st2{fill:#36E8E8;}
	.st3{fill:#AEF1F4;}
	.st4{fill:#81E281;}
	.st5{fill:#A2F2DB;}
	.st6{fill:#7DEFEC;}
	.st7{fill:#95EFEF;}
	.st8{fill:#FC38D2;}
	.st9{fill:#77E87D;}
	.st10{fill:#79F27C;}
	.st11{fill:#ABFFAB;}
	.st12{fill:#63D6D3;}
	.st13{fill:#65E0DA;}
	.st14{fill:#8FFAFF;}
	.st15{fill:#8DFFFF;}
	.st16{fill:#8DFF8D;}
	.st17{fill:#6AEFEF;}
	.st18{fill:#3CDDD5;}
	.st19{fill:#3FD1CA;}
	.st20{fill:#F4F4F4;}
	.st21{fill:#79E27E;}
	.st22{fill:#A5F9A9;}
	.st23{display:none;}
	.st24{display:inline;fill:none;stroke:#000000;stroke-miterlimit:10;}
	.st25{opacity:0.3;fill:#7600FF;enable-background:new    ;}
	.st26{opacity:0.7;fill:url(#SVGID_1_);enable-background:new    ;}
	.st27{fill:url(#SVGID_2_);}
	.st28{fill:none;stroke:#00CAFF;stroke-width:7;stroke-miterlimit:10;}
	.st29{fill:#00CAFF;}
	.st30{fill:url(#SVGID_3_);}
	.st31{fill:url(#SVGID_4_);}
	.st32{fill:url(#SVGID_5_);}
	.st33{fill:none;stroke:#03EAEA;stroke-miterlimit:10;}
	.st34{fill:url(#SVGID_6_);}
	.st35{fill:#FFFFFF;}
	.st36{fill:#92FF9C;stroke:#FFFFFF;stroke-width:28;stroke-miterlimit:10;}
	.st37{fill:url(#SVGID_7_);}
	.st38{fill:url(#SVGID_8_);}
	.st39{fill:url(#SVGID_9_);}
	.st40{fill:#88FFFF;}
	.st41{fill:url(#SVGID_10_);}
	.st42{fill:url(#SVGID_11_);}
	.st43{fill:url(#SVGID_12_);}
	.st44{fill:url(#SVGID_13_);}
	.st45{fill:url(#SVGID_14_);}
	.st46{fill:url(#SVGID_15_);}
	.st47{fill:url(#SVGID_16_);}
	.st48{fill:#FC00C6;}
	.st49{fill:url(#SVGID_17_);}
	.st50{fill:#40E849;}
	.st51{fill:#3EF242;}
	.st52{fill:#82FF82;}
	.st53{fill:#00FF67;}
	.st54{fill:#00D600;}
	.st55{fill:#2BD6D2;}
	.st56{fill:#29E0D7;}
	.st57{fill:#58F8FF;}
	.st58{fill:#00C5E5;}
	.st59{fill:#89F796;}
	.st60{fill:#55FF55;}
	.st61{fill:#29EFEF;}
	.st62{fill:#00DDD2;}
	.st63{fill:#00D1C7;}
	.st64{opacity:0.6;fill:url(#SVGID_18_);enable-background:new    ;}
	.st65{fill:#06E24D;}
	.st66{fill:#7CF982;}
	.st67{fill:url(#SVGID_19_);}
	.st68{fill:url(#SVGID_20_);}
	.st69{fill:url(#SVGID_21_);}
	.st70{fill:url(#SVGID_22_);}
	.st71{fill:url(#SVGID_23_);}
	.st72{fill:url(#SVGID_24_);}
	.st73{fill:url(#SVGID_25_);}
	.st74{stroke:#FFFFFF;stroke-miterlimit:10;}
</style>
<polygon class="st0" points="2177.4,1878 1842.6,2072.6 1842.6,2459.5 2177.4,2653 2513.3,2459.5 2525.5,2078.8 "/>
<polygon class="st0" points="1868.2,2444.6 2177.2,2266.6 2485.2,2444.6 2176.2,2622.6 "/>
<polygon class="st1" points="2177.2,1910.2 2177.2,2266.6 2485.2,2444.6 2489.2,2088.6 "/>
<polygon class="st2" points="1911.8,2424.1 1960.7,2451.1 2200.6,2315.8 2153.4,2289.6 "/>
<polygon class="st3" points="1911.8,2424.1 1911.8,2438.7 1960.7,2468 2200.6,2324.2 2200.6,2315.8 1960.7,2451.1 "/>
<polygon class="st4" points="2176.2,1909.6 1868.2,2088.6 1868.2,2444.6 2177.2,2266.6 2177.2,1910.2 "/>
<path class="st0" d="M2073.7,2138.1c0,0,17.3,23.1,40.7,0.3l33,40.4l-21.9,13.6l-10-6.3c0,0,3.8,55.9,9.4,64.8l-58.9-16.8
	c0,0,8.7-49.2,4.7-61.3l-12.5,10.9l-12.1-17.1L2073.7,2138.1z"/>
<path class="st5" d="M2056.4,2148.3c0,0,22.7,36.6,46.2,4.5l23.4,56.2l-21.4-3.9l-0.2-22c0,0-11.9,58.9-6.3,67.8l-49.4-6.6
	c0,0,8.7-49.2,4.7-61.3l-12.5,10.9l-12.1-17.1L2056.4,2148.3z"/>
<path class="st6" d="M2031.8,2167.4c0,0,15,29.9,38.5-2.1l24,62.5l-18.3-5l-2.2-18.7c0,0,0.8,57.6,6.4,66.5l-56.1-7.2
	c0,0,8.7-49.2,4.7-61.3l-12.5,10.9l-12.1-17.1L2031.8,2167.4z"/>
<polyline class="st2" points="2143.4,2314.5 2140.2,2312.6 2135.8,2118.9 2142.5,2115.2 "/>
<path class="st7" d="M1994.7,2179.9c0,0,21.8,29.6,45.3-2.5l19.8,51.9l-15.3,4.9l-7.8-17.7c0,0,3.4,65.6,9,74.5l-58.7-15.2
	c0,0,8.7-49.2,4.7-61.3l-12.5,10.9l-12.1-17.1L1994.7,2179.9z"/>
<path class="st3" d="M1979.5,2189.9c0,0,21.7,32.6,45.1,0.5l18.6,55.3l-16.6,1.3l-5.1-20.6c0,0-2.9,63.9,2.7,72.8l-52.4-13.6
	c0,0,8.7-49.2,4.7-61.3l-12.5,10.9l-12.1-17.1L1979.5,2189.9z"/>
<polygon class="st3" points="1956.2,2427.2 1956.2,2202.5 2155.6,2092.2 2153.4,2309.4 2143.4,2314.5 2142.5,2115.2 1966.2,2212.5 
	1966.2,2423.7 "/>
<polygon class="st2" points="1950.7,2197 2143.4,2089.9 2155.6,2092.2 1956.2,2202.5 "/>
<polyline class="st2" points="1956.2,2202.5 1950.7,2197 1953.2,2424.8 1956.2,2427.2 "/>
<polygon class="st2" points="2269.3,2355.5 2269.3,2463 2364.1,2410.2 "/>
<path class="st8" d="M2178.7,2517"/>
<polygon class="st3" points="2331.1,2319.8 2269.3,2355.5 2364.1,2410.2 2422.9,2373.7 "/>
<polygon class="st3" points="2207.9,2533.7 2165.4,2510 2205.8,2619.2 2453.4,2464.3 2451.3,2389.1 "/>
<polyline class="st3" points="2348.7,2401.2 2163.1,2510 2207.9,2533.7 2451.3,2389.1 2423.2,2373.7 "/>
<polygon class="st2" points="2162.8,2509.9 2162.8,2595.2 2205.8,2619.2 2207.6,2533.7 "/>
<polyline class="st9" points="2292.9,2352.5 2294.5,2351.6 2329.5,2332.3 2366.1,2352.5 2329.5,2374.9 "/>
<polyline class="st10" points="2293.9,2350.5 2295.5,2349.6 2330.5,2330.3 2367.1,2350.5 2330.5,2372.9 "/>
<polyline class="st11" points="2294.9,2348.5 2296.5,2347.6 2331.5,2328.3 2368.1,2348.5 2331.5,2370.9 "/>
<polyline class="st0" points="2295.9,2346.5 2297.5,2345.6 2332.5,2326.3 2369.1,2346.5 2332.5,2368.9 "/>
<path class="st10" d="M2333.2,2337.7l8.7-0.6l0.4,5.6l12.3-4.2c0,0-8.4-1.8-10.7-3.4c-2.3-1.5-4-4.9-4-4.9l-6.7,7"/>
<path class="st9" d="M2340,2330.3c0,0,9.3,2.7,14.7,8.2C2354.7,2338.5,2341.2,2337,2340,2330.3z"/>
<path class="st10" d="M2340.3,2331.5c0,0,5.7,0.6,13.2,6.8l1.2,0.3c0,0-4.9-5.4-14.6-8.3L2340.3,2331.5z"/>
<polyline class="st12" points="2353.6,2387.8 2355.2,2386.9 2390.3,2367.6 2426.9,2387.8 2390.3,2410.2 "/>
<polyline class="st13" points="2354.6,2385.8 2356.2,2384.9 2391.3,2365.6 2427.9,2385.8 2391.3,2408.2 "/>
<polyline class="st14" points="2355.6,2383.8 2357.2,2382.9 2392.3,2363.6 2428.9,2383.8 2392.3,2406.2 "/>
<polyline class="st15" points="2356.6,2381.8 2358.2,2380.9 2393.3,2361.6 2429.9,2381.8 2393.3,2404.2 "/>
<path class="st13" d="M2394,2373.1l8.7-0.7l0.4,5.6l12.3-4.2c0,0-8.4-1.8-10.7-3.3s-4-4.9-4-4.9l-6.7,7"/>
<path class="st12" d="M2400.8,2365.6c0,0,9.3,2.7,14.7,8.2C2415.5,2373.9,2402,2372.3,2400.8,2365.6z"/>
<path class="st13" d="M2401.1,2366.8c0,0,5.7,0.6,13.2,6.8l1.2,0.3c0,0-4.9-5.4-14.6-8.3L2401.1,2366.8z"/>
<path class="st0" d="M2347.8,2441.7c0,0-5.7-4.9-12.1-9.3c-4.6-3.2-9.5-6.2-12.9-7.1c-8.1-2.1-8.4,7.1-8.4,7.1l7.5,3.6l13.4,14.8"/>
<path class="st9" d="M2314.6,2432.4l6.1,5.7l14.6,12.6L2322,2436c0-0.1-0.1-0.1-0.2-0.1L2314.6,2432.4z"/>
<path class="st11" d="M2335,2442.5l-3.7-0.8c0,0-3.8-0.9-4.5-2.9l0.2,2.7l8.3,9.2L2335,2442.5z"/>
<path class="st16" d="M2338.3,2438.3l-0.2-4.8c0,0,3.7,2.7,5.8,2.8l-5.5,3.5L2338.3,2438.3z"/>
<path class="st9" d="M2327,2439.1c0,0,2.7-6.1,11.2-5.5l0.3,6.3l-2.9,2.1l-0.5,1C2335.1,2443,2327.9,2441.6,2327,2439.1z"/>
<path class="st11" d="M2335.2,2450.6c0,0-2.1-8.1,2.8-11.4c6.9-4.7,9.7-2.7,9.8,2.4L2335.2,2450.6z"/>
<path class="st0" d="M2328,2452.3c0,0-5.7-4.9-12.1-9.4c-4.6-3.2-9.5-6.2-12.9-7.1c-8.1-2.1-8.4,7.1-8.4,7.1l7,4.2l13.9,14.1"/>
<path class="st9" d="M2294.8,2443l5.6,6.2l15.1,12c0,0-13.7-14.1-13.8-14.1L2294.8,2443z"/>
<path class="st11" d="M2315.1,2452.1l-3.7-0.8c0,0-3.8-0.9-4.5-2.9l0.2,2.7l8.3,9.2L2315.1,2452.1z"/>
<path class="st16" d="M2318.6,2449l-0.2-4.8c0,0,3.7,2.7,5.8,2.8l-5.5,3.5L2318.6,2449z"/>
<path class="st9" d="M2307.2,2449.7c0,0,2.7-6.1,11.2-5.5l0.3,6.3l-2.9,2.1l-0.5,1C2315.3,2453.6,2308.1,2452.2,2307.2,2449.7z"/>
<path class="st11" d="M2315.4,2460.2c0,0-2.1-7,2.8-10.3c6.9-4.7,9.7-2.7,9.8,2.4L2315.4,2460.2z"/>
<path class="st12" d="M2286.2,2475.9c0,0-5.7-4.9-12.1-9.3c-4.6-3.2-9.5-6.2-12.9-7.1c-8.1-2.1-8.4,7.1-8.4,7.1l7.5,3.6l13.4,14.8"
	/>
<path class="st17" d="M2253,2466.7l6.1,5.7l14.6,12.6l-13.4-14.7c0-0.1-0.1-0.1-0.2-0.1L2253,2466.7z"/>
<path class="st12" d="M2273.4,2476.8l-3.7-0.8c0,0-3.8-0.9-4.5-2.9l0.2,2.7l8.3,9.2L2273.4,2476.8z"/>
<path class="st18" d="M2276.7,2472.6l-0.2-4.8c0,0,3.7,2.7,5.8,2.8l-5.5,3.5L2276.7,2472.6z"/>
<path class="st19" d="M2265.4,2473.3c0,0,2.7-6.1,11.2-5.5l0.3,6.3l-2.9,2.1l-0.5,1C2273.5,2477.2,2266.3,2475.8,2265.4,2473.3z"/>
<path class="st12" d="M2273.6,2484.9c0,0-2.1-8.1,2.8-11.4c6.9-4.7,9.7-2.7,9.8,2.4L2273.6,2484.9z"/>
<path class="st12" d="M2268.4,2487.6c0,0-5.7-4.9-12.1-9.4c-4.6-3.2-9.5-6.2-12.9-7.1c-8.1-2.1-8.4,7.1-8.4,7.1l7,4.2l13.9,14.1"/>
<path class="st17" d="M2235.2,2478.3l5.6,6.2l15.1,12c0,0-13.7-14.1-13.8-14.1L2235.2,2478.3z"/>
<path class="st12" d="M2255.5,2487.3l-3.7-0.8c0,0-3.8-0.9-4.5-2.9l0.2,2.7l8.3,9.2L2255.5,2487.3z"/>
<path class="st18" d="M2259,2484.2l-0.2-4.8c0,0,3.7,2.7,5.8,2.8l-5.5,3.5L2259,2484.2z"/>
<path class="st19" d="M2247.6,2485c0,0,2.7-6.1,11.2-5.5l0.3,6.3l-2.9,2.1l-0.5,1C2255.7,2488.9,2248.5,2487.5,2247.6,2485z"/>
<path class="st12" d="M2255.8,2495.5c0,0-2.1-7,2.8-10.3c6.9-4.7,9.7-2.7,9.8,2.4L2255.8,2495.5z"/>
<polygon class="st11" points="2298,2444.9 2307.6,2437.8 2309,2438.9 2298.8,2445.7 "/>
<polyline class="st11" points="2301.3,2447 2310.6,2439.5 2311.7,2440.5 2302.5,2448 2301.7,2447.2 "/>
<polygon class="st11" points="2313.9,2432.6 2323.4,2425.2 2324.9,2425.9 2315.4,2432.6 "/>
<polygon class="st11" points="2317.9,2433.7 2326,2426.5 2327.1,2427.1 2318.7,2434.3 "/>
<polygon class="st17" points="2254.7,2467.5 2264.6,2460.8 2265.6,2461.3 2255.9,2468 "/>
<polyline class="st17" points="2258.2,2469.2 2266.9,2462.4 2268.4,2462.9 2259,2469.5 2257.9,2469 "/>
<polyline class="st17" points="2236.3,2479 2246.3,2472.2 2247.3,2473.1 2236.6,2479.8 2236.3,2479.4 "/>
<polyline class="st17" points="2239,2480.6 2249.9,2474.1 2251.6,2475.1 2239.4,2481.3 2239,2481 "/>
<polygon class="st20" points="2256,2204 2383.2,2272.6 2394,2106.5 2261.7,2037.9 "/>
<polygon class="st21" points="2275,2044.8 2269.3,2194.5 2256,2204 2261.7,2037.9 "/>
<polygon class="st22" points="2269.3,2194.5 2384.3,2255.3 2383.2,2272.6 2256,2204 "/>
<polyline class="st1" points="2264.8,2109.6 2396,2177.4 2394.5,2193 2264,2125.3 "/>
<g class="st23">
	<polygon class="st24" points="-724.4,2301.3 1051.2,1276.1 2826.9,2301.3 1051.2,3326.6 	"/>
	<line class="st24" x1="1016.4" y1="3306.5" x2="2792.1" y2="2281.2"/>
	<line class="st24" x1="981.6" y1="3286.4" x2="2757.3" y2="2261.1"/>
	<line class="st24" x1="946.8" y1="3266.3" x2="2722.5" y2="2241"/>
	<line class="st24" x1="912" y1="3246.2" x2="2687.6" y2="2220.9"/>
	<line class="st24" x1="877.1" y1="3226.1" x2="2652.8" y2="2200.8"/>
	<line class="st24" x1="842.3" y1="3206" x2="2618" y2="2180.7"/>
	<line class="st24" x1="807.5" y1="3185.9" x2="2583.2" y2="2160.6"/>
	<line class="st24" x1="772.7" y1="3165.8" x2="2548.4" y2="2140.5"/>
	<line class="st24" x1="737.9" y1="3145.7" x2="2513.6" y2="2120.4"/>
	<line class="st24" x1="703.1" y1="3125.6" x2="2478.7" y2="2100.3"/>
	<line class="st24" x1="668.2" y1="3105.5" x2="2443.9" y2="2080.2"/>
	<line class="st24" x1="633.4" y1="3085.4" x2="2409.1" y2="2060.1"/>
	<line class="st24" x1="598.6" y1="3065.3" x2="2374.3" y2="2040"/>
	<line class="st24" x1="563.8" y1="3045.2" x2="2339.5" y2="2019.9"/>
	<line class="st24" x1="529" y1="3025" x2="2304.7" y2="1999.8"/>
	<line class="st24" x1="494.2" y1="3004.9" x2="2269.8" y2="1979.7"/>
	<line class="st24" x1="459.3" y1="2984.8" x2="2235" y2="1959.6"/>
	<line class="st24" x1="424.5" y1="2964.7" x2="2200.2" y2="1939.5"/>
	<line class="st24" x1="389.7" y1="2944.6" x2="2165.4" y2="1919.4"/>
	<line class="st24" x1="354.9" y1="2924.5" x2="2130.6" y2="1899.3"/>
	<line class="st24" x1="320.1" y1="2904.4" x2="2095.8" y2="1879.2"/>
	<line class="st24" x1="285.3" y1="2884.3" x2="2060.9" y2="1859.1"/>
	<line class="st24" x1="250.4" y1="2864.2" x2="2026.1" y2="1838.9"/>
	<line class="st24" x1="215.6" y1="2844.1" x2="1991.3" y2="1818.8"/>
	<line class="st24" x1="180.8" y1="2824" x2="1956.5" y2="1798.7"/>
	<line class="st24" x1="146" y1="2803.9" x2="1921.7" y2="1778.6"/>
	<line class="st24" x1="111.2" y1="2783.8" x2="1886.9" y2="1758.5"/>
	<line class="st24" x1="76.3" y1="2763.7" x2="1852" y2="1738.4"/>
	<line class="st24" x1="41.5" y1="2743.6" x2="1817.2" y2="1718.3"/>
	<line class="st24" x1="6.7" y1="2723.5" x2="1782.4" y2="1698.2"/>
	<line class="st24" x1="-28.1" y1="2703.4" x2="1747.6" y2="1678.1"/>
	<line class="st24" x1="-62.9" y1="2683.3" x2="1712.8" y2="1658"/>
	<line class="st24" x1="-97.7" y1="2663.2" x2="1677.9" y2="1637.9"/>
	<line class="st24" x1="-132.5" y1="2643.1" x2="1643.1" y2="1617.8"/>
	<line class="st24" x1="-167.4" y1="2623" x2="1608.3" y2="1597.7"/>
	<line class="st24" x1="-202.2" y1="2602.9" x2="1573.5" y2="1577.6"/>
	<line class="st24" x1="-237" y1="2582.8" x2="1538.7" y2="1557.5"/>
	<line class="st24" x1="-271.8" y1="2562.7" x2="1503.9" y2="1537.4"/>
	<line class="st24" x1="-306.6" y1="2542.6" x2="1469" y2="1517.3"/>
	<line class="st24" x1="-341.5" y1="2522.5" x2="1434.2" y2="1497.2"/>
	<line class="st24" x1="-376.3" y1="2502.4" x2="1399.4" y2="1477.1"/>
	<line class="st24" x1="-411.1" y1="2482.3" x2="1364.6" y2="1457"/>
	<line class="st24" x1="-445.9" y1="2462.2" x2="1329.8" y2="1436.9"/>
	<line class="st24" x1="-480.7" y1="2442.1" x2="1294.9" y2="1416.8"/>
	<line class="st24" x1="-515.5" y1="2421.9" x2="1260.1" y2="1396.7"/>
	<line class="st24" x1="-550.3" y1="2401.8" x2="1225.3" y2="1376.6"/>
	<line class="st24" x1="-585.2" y1="2381.7" x2="1190.5" y2="1356.5"/>
	<line class="st24" x1="-620" y1="2361.6" x2="1155.7" y2="1336.4"/>
	<line class="st24" x1="-654.8" y1="2341.5" x2="1120.9" y2="1316.3"/>
	<line class="st24" x1="-689.6" y1="2321.4" x2="1086.1" y2="1296.2"/>
	<line class="st24" x1="1016.4" y1="1296.2" x2="2792.1" y2="2321.4"/>
	<line class="st24" x1="981.6" y1="1316.3" x2="2757.3" y2="2341.5"/>
	<line class="st24" x1="946.8" y1="1336.4" x2="2722.5" y2="2361.6"/>
	<line class="st24" x1="912" y1="1356.5" x2="2687.6" y2="2381.7"/>
	<line class="st24" x1="877.1" y1="1376.6" x2="2652.8" y2="2401.8"/>
	<line class="st24" x1="842.3" y1="1396.7" x2="2618" y2="2421.9"/>
	<line class="st24" x1="807.5" y1="1416.8" x2="2583.2" y2="2442.1"/>
	<line class="st24" x1="772.7" y1="1436.9" x2="2548.4" y2="2462.2"/>
	<line class="st24" x1="737.9" y1="1457" x2="2513.6" y2="2482.3"/>
	<line class="st24" x1="703.1" y1="1477.1" x2="2478.7" y2="2502.4"/>
	<line class="st24" x1="668.2" y1="1497.2" x2="2443.9" y2="2522.5"/>
	<line class="st24" x1="633.4" y1="1517.3" x2="2409.1" y2="2542.6"/>
	<line class="st24" x1="598.6" y1="1537.4" x2="2374.3" y2="2562.7"/>
	<line class="st24" x1="563.8" y1="1557.5" x2="2339.5" y2="2582.8"/>
	<line class="st24" x1="529" y1="1577.6" x2="2304.7" y2="2602.9"/>
	<line class="st24" x1="494.2" y1="1597.7" x2="2269.8" y2="2623"/>
	<line class="st24" x1="459.3" y1="1617.8" x2="2235" y2="2643.1"/>
	<line class="st24" x1="424.5" y1="1637.9" x2="2200.2" y2="2663.2"/>
	<line class="st24" x1="389.7" y1="1658" x2="2165.4" y2="2683.3"/>
	<line class="st24" x1="354.9" y1="1678.1" x2="2130.6" y2="2703.4"/>
	<line class="st24" x1="320.1" y1="1698.2" x2="2095.8" y2="2723.5"/>
	<line class="st24" x1="285.3" y1="1718.3" x2="2060.9" y2="2743.6"/>
	<line class="st24" x1="250.4" y1="1738.4" x2="2026.1" y2="2763.7"/>
	<line class="st24" x1="215.6" y1="1758.5" x2="1991.3" y2="2783.8"/>
	<line class="st24" x1="180.8" y1="1778.6" x2="1956.5" y2="2803.9"/>
	<line class="st24" x1="146" y1="1798.7" x2="1921.7" y2="2824"/>
	<line class="st24" x1="111.2" y1="1818.8" x2="1886.9" y2="2844.1"/>
	<line class="st24" x1="76.3" y1="1838.9" x2="1852" y2="2864.2"/>
	<line class="st24" x1="41.5" y1="1859.1" x2="1817.2" y2="2884.3"/>
	<line class="st24" x1="6.7" y1="1879.2" x2="1782.4" y2="2904.4"/>
	<line class="st24" x1="-28.1" y1="1899.3" x2="1747.6" y2="2924.5"/>
	<line class="st24" x1="-62.9" y1="1919.4" x2="1712.8" y2="2944.6"/>
	<line class="st24" x1="-97.7" y1="1939.5" x2="1677.9" y2="2964.7"/>
	<line class="st24" x1="-132.5" y1="1959.6" x2="1643.1" y2="2984.8"/>
	<line class="st24" x1="-167.4" y1="1979.7" x2="1608.3" y2="3004.9"/>
	<line class="st24" x1="-202.2" y1="1999.8" x2="1573.5" y2="3025"/>
	<line class="st24" x1="-237" y1="2019.9" x2="1538.7" y2="3045.2"/>
	<line class="st24" x1="-271.8" y1="2040" x2="1503.9" y2="3065.3"/>
	<line class="st24" x1="-306.6" y1="2060.1" x2="1469" y2="3085.4"/>
	<line class="st24" x1="-341.5" y1="2080.2" x2="1434.2" y2="3105.5"/>
	<line class="st24" x1="-376.3" y1="2100.3" x2="1399.4" y2="3125.6"/>
	<line class="st24" x1="-411.1" y1="2120.4" x2="1364.6" y2="3145.7"/>
	<line class="st24" x1="-445.9" y1="2140.5" x2="1329.8" y2="3165.8"/>
	<line class="st24" x1="-480.7" y1="2160.6" x2="1294.9" y2="3185.9"/>
	<line class="st24" x1="-515.5" y1="2180.7" x2="1260.1" y2="3206"/>
	<line class="st24" x1="-550.3" y1="2200.8" x2="1225.3" y2="3226.1"/>
	<line class="st24" x1="-585.2" y1="2220.9" x2="1190.5" y2="3246.2"/>
	<line class="st24" x1="-620" y1="2241" x2="1155.7" y2="3266.3"/>
	<line class="st24" x1="-654.8" y1="2261.1" x2="1120.9" y2="3286.4"/>
	<line class="st24" x1="-689.6" y1="2281.2" x2="1086.1" y2="3306.5"/>
</g>
<polygon class="st1" points="2313.2,2227.3 2321,2055.2 2333.6,2062.5 2326,2233.6 "/>
<polyline class="st25" points="3202.1,2186.6 2443.4,2638.4 2443.4,2847.4 3230.6,2847.4 3321.1,2248.3 "/>
<linearGradient id="SVGID_1_" gradientUnits="userSpaceOnUse" x1="-672.2" y1="-638.491" x2="991.8" y2="-638.491" gradientTransform="matrix(1 0 0 1 0 2179.491)">
	<stop  offset="0" style="stop-color:#00F4F4"/>
	<stop  offset="0.6084" style="stop-color:#33FF48"/>
	<stop  offset="1" style="stop-color:#2EFF42"/>
</linearGradient>
<polyline class="st26" points="991.8,1062.1 -672.2,2019.9 991.8,2013.7 "/>
<g>
	<g>
		
			<linearGradient id="SVGID_2_" gradientUnits="userSpaceOnUse" x1="726.1" y1="-656.5695" x2="919.3" y2="-656.5695" gradientTransform="matrix(1 0 0 1 0 2179.491)">
			<stop  offset="5.700000e-02" style="stop-color:#3FA9F5"/>
			<stop  offset="0.738" style="stop-color:#02F2F4"/>
		</linearGradient>
		<path class="st27" d="M916.2,1555.7c0,0-40.2,20.4-94.3,14s-78.6-24.6-94.7-55.6l-1.1-39.2c0,0,1.1,33.6,60.6,58.3
			c15.9,3.9,32.6,5.8,48.9,6.4c11.2,0.5,22.4,0.1,33.6-1.3c5.6-0.7,11.2-1.7,16.7-3c4.4-1,8.6-2.9,13.2-3.5
			c3.9-0.5,7.6,0.6,11.1,2.1c2.1,0.9,7.2,3.6,9.1,1.3l-8.7,10.8L916.2,1555.7z"/>
		<path class="st28" d="M900.3,1534.1c0,0-35.8,16.4-105,1.5c-13.2-2.8-26.2-7.2-37.6-14.5c-7.7-4.9-14.7-11.1-19.8-18.7
			c-3.9-5.8-7-12.6-8.3-19.5c-1.9-10.5,1.8-20.6,7.2-29.4c3.3-5.5,7.4-10.5,12.1-14.9c6.1-5.7,13.1-10.4,20.6-14.1
			c9.9-4.9,20.5-8.2,31.3-10.5c13.4-2.7,27-3.8,40.7-3.9c72.5-0.4,98.3,28.7,107.4,47.7c3.3,6.9,4.9,14.4,4.9,22v21
			c0,14.6-6.1,28.5-16.9,38.4c-0.2,0.2-0.3,0.3-0.3,0.3"/>
		<path class="st29" d="M899.7,1531c0,0,49.4-15.1,54.1-57v41.3c0,0-7.1,23.8-38.6,40.4L899.7,1531z"/>
		
			<linearGradient id="SVGID_3_" gradientUnits="userSpaceOnUse" x1="940.5" y1="-571.241" x2="1116.1" y2="-571.241" gradientTransform="matrix(1 0 0 1 0 2179.491)">
			<stop  offset="0" style="stop-color:#00F4F4"/>
			<stop  offset="0.1659" style="stop-color:#02F2F4"/>
			<stop  offset="1" style="stop-color:#3FA9F5"/>
		</linearGradient>
		<polygon class="st30" points="1116.1,1614.7 1116.1,1641.1 1089.3,1663.4 940.5,1578.7 940.6,1553.1 1089.3,1633.3 		"/>
		<g>
			
				<linearGradient id="SVGID_4_" gradientUnits="userSpaceOnUse" x1="940.6" y1="-596.041" x2="1116.1" y2="-596.041" gradientTransform="matrix(1 0 0 1 0 2179.491)">
				<stop  offset="5.700000e-02" style="stop-color:#3FA9F5"/>
				<stop  offset="7.580000e-02" style="stop-color:#3CADF5"/>
				<stop  offset="0.25" style="stop-color:#23CBF5"/>
				<stop  offset="0.421" style="stop-color:#11E1F4"/>
				<stop  offset="0.586" style="stop-color:#06EEF4"/>
				<stop  offset="0.738" style="stop-color:#02F2F4"/>
			</linearGradient>
			<polygon class="st31" points="1089.3,1638.6 940.6,1553.1 966.2,1528.3 1116.1,1614.7 			"/>
			
				<linearGradient id="SVGID_5_" gradientUnits="userSpaceOnUse" x1="918.2" y1="-646.3409" x2="962.7" y2="-646.3409" gradientTransform="matrix(1 0 0 1 0 2179.491)">
				<stop  offset="5.700000e-02" style="stop-color:#3FA9F5"/>
				<stop  offset="7.580000e-02" style="stop-color:#3CADF5"/>
				<stop  offset="0.25" style="stop-color:#23CBF5"/>
				<stop  offset="0.421" style="stop-color:#11E1F4"/>
				<stop  offset="0.586" style="stop-color:#06EEF4"/>
				<stop  offset="0.738" style="stop-color:#02F2F4"/>
			</linearGradient>
			<polygon class="st32" points="944.6,1549.3 918.2,1535.2 937.4,1517 962.7,1531.6 			"/>
		</g>
		<polygon class="st29" points="918.2,1535.2 918.2,1555.7 940.6,1568.2 944.6,1549.3 		"/>
		<path class="st33" d="M898.9,1531.4c0,0,46.2-10.9,54.9-57.4"/>
		
			<linearGradient id="SVGID_6_" gradientUnits="userSpaceOnUse" x1="732.4" y1="-734.9218" x2="950.1" y2="-734.9218" gradientTransform="matrix(1 0 0 1 0 2179.491)">
			<stop  offset="5.700000e-02" style="stop-color:#3FA9F5"/>
			<stop  offset="0.1203" style="stop-color:#49B7F5"/>
			<stop  offset="0.2649" style="stop-color:#5CD1F4"/>
			<stop  offset="0.4138" style="stop-color:#69E3F4"/>
			<stop  offset="0.5684" style="stop-color:#71EEF4"/>
			<stop  offset="0.738" style="stop-color:#74F2F4"/>
		</linearGradient>
		<path class="st34" d="M950.1,1472.9c0,0-107.9-89.3-217.7,2.1c0,0,6.7-59.1,102.1-60.8C926.4,1412.4,944.3,1450.4,950.1,1472.9z"
			/>
	</g>
	<path class="st35" d="M887.2,1455.5l14.1-11.5c0,0-72.8-14.6-111.6,3l14,22.1C803.8,1469.2,825.4,1453.9,887.2,1455.5z"/>
	<path class="st35" d="M911.1,1447.7c0,0,13.5,0,18.3,9.2l-8.7,8.2c0,0-7.9-4.6-10.3-5.2c-2.5-0.6-13-1.2-13-1.2L911.1,1447.7z"/>
</g>
<g>
	<polygon class="st36" points="425.9,1166.4 85.6,1357.7 91.3,1746 426.1,1939.5 761.9,1746 774.1,1365.3 	"/>
	
		<linearGradient id="SVGID_7_" gradientUnits="userSpaceOnUse" x1="425.4" y1="-254.5909" x2="425.4" y2="-623.1909" gradientTransform="matrix(1 0 0 1 0 2179.491)">
		<stop  offset="0.2732" style="stop-color:#00FF98"/>
		<stop  offset="0.3444" style="stop-color:#1AFD8C"/>
		<stop  offset="0.4354" style="stop-color:#34FC81"/>
		<stop  offset="0.5292" style="stop-color:#46FB79"/>
		<stop  offset="0.6267" style="stop-color:#51FA74"/>
		<stop  offset="0.7335" style="stop-color:#55FA72"/>
	</linearGradient>
	<polygon class="st37" points="116.9,1734.3 425.9,1556.3 733.9,1734.3 427.4,1924.9 	"/>
	
		<linearGradient id="SVGID_8_" gradientUnits="userSpaceOnUse" x1="445.6067" y1="-599.7054" x2="719.4498" y2="-829.4871" gradientTransform="matrix(1 0 0 1 0 2179.491)">
		<stop  offset="0.1464" style="stop-color:#46E242"/>
		<stop  offset="0.2803" style="stop-color:#3FEA5B"/>
		<stop  offset="0.4226" style="stop-color:#3AEF6D"/>
		<stop  offset="0.5709" style="stop-color:#37F378"/>
		<stop  offset="0.7335" style="stop-color:#36F47C"/>
	</linearGradient>
	<polygon class="st38" points="425.9,1199.9 425.9,1556.3 733.9,1734.3 744.2,1379.5 	"/>
	
		<linearGradient id="SVGID_9_" gradientUnits="userSpaceOnUse" x1="160.4" y1="-519.491" x2="449.3" y2="-519.491" gradientTransform="matrix(1 0 0 1 0 2179.491)">
		<stop  offset="6.926126e-08" style="stop-color:#00DEE0"/>
		<stop  offset="0.5501" style="stop-color:#00DCE2"/>
		<stop  offset="0.764" style="stop-color:#02D6E9"/>
		<stop  offset="0.9187" style="stop-color:#05CBF5"/>
		<stop  offset="1" style="stop-color:#08C2FF"/>
	</linearGradient>
	<polygon class="st39" points="160.4,1713.8 209.3,1740.7 449.3,1605.5 402,1579.3 	"/>
	<polygon class="st40" points="160.4,1713.8 160.4,1728.4 209.3,1757.7 449.3,1613.8 449.3,1605.5 209.3,1740.7 	"/>
	
		<linearGradient id="SVGID_10_" gradientUnits="userSpaceOnUse" x1="112.1699" y1="-804.3337" x2="425.9047" y2="-623.199" gradientTransform="matrix(1 0 0 1 0 2179.491)">
		<stop  offset="0.5441" style="stop-color:#10F270"/>
		<stop  offset="0.6289" style="stop-color:#1AEE5C"/>
		<stop  offset="0.7786" style="stop-color:#29E93E"/>
		<stop  offset="0.9075" style="stop-color:#33E52C"/>
		<stop  offset="1" style="stop-color:#36E426"/>
	</linearGradient>
	<polygon class="st41" points="424.9,1199.3 113.3,1373.2 116.9,1734.3 425.9,1556.3 425.9,1199.9 	"/>
	
		<linearGradient id="SVGID_11_" gradientUnits="userSpaceOnUse" x1="294.7" y1="-695.3409" x2="396" y2="-695.3409" gradientTransform="matrix(1 0 0 1 0 2179.491)">
		<stop  offset="0.2553" style="stop-color:#08FA92"/>
		<stop  offset="0.5573" style="stop-color:#18E772"/>
		<stop  offset="0.7866" style="stop-color:#22DC5E"/>
	</linearGradient>
	<path class="st42" d="M322.3,1427.8c0,0,17.3,23.1,40.7,0.3l33,40.3l-21.9,13.6l-10-6.3c0,0,3.8,55.8,9.4,64.8l-58.9-16.8
		c0,0,8.7-49.2,4.7-61.3l-12.5,10.9l-12.1-17.1L322.3,1427.8z"/>
	
		<linearGradient id="SVGID_12_" gradientUnits="userSpaceOnUse" x1="277.2999" y1="-690.191" x2="374.4999" y2="-690.191" gradientTransform="matrix(1 0 0 1 0 2179.491)">
		<stop  offset="0.157" style="stop-color:#08FA4E"/>
		<stop  offset="0.3884" style="stop-color:#06FC7F"/>
		<stop  offset="0.6553" style="stop-color:#05FEB2"/>
		<stop  offset="0.7866" style="stop-color:#04FFC6"/>
	</linearGradient>
	<path class="st43" d="M305,1438c0,0,20.9,20.2,46.2,4.5l23.4,56.2l-21.4-3.9l-0.2-22c0,0-11.9,58.9-6.3,67.8l-49.4-6.6
		c0,0,8.7-49.2,4.7-61.3l-12.5,10.9l-12.1-17.1L305,1438z"/>
	
		<linearGradient id="SVGID_13_" gradientUnits="userSpaceOnUse" x1="252.8" y1="-671.8409" x2="342.9" y2="-671.8409" gradientTransform="matrix(1 0 0 1 0 2179.491)">
		<stop  offset="0.157" style="stop-color:#08D8FF"/>
		<stop  offset="0.6749" style="stop-color:#5AE6EE"/>
	</linearGradient>
	<path class="st44" d="M280.4,1457.1c0,0,15,29.9,38.5-2.1l24,62.5l-18.3-5l-2.2-18.7c0,0,0.8,57.6,6.4,66.5l-56.1-7.2
		c0,0,8.7-49.2,4.7-61.3l-12.5,10.9l-12.1-17.1L280.4,1457.1z"/>
	<polyline class="st29" points="392,1604.1 388.8,1602.3 384.4,1408.6 391.1,1404.9 	"/>
	
		<linearGradient id="SVGID_14_" gradientUnits="userSpaceOnUse" x1="215.7" y1="-655.6409" x2="308.4" y2="-655.6409" gradientTransform="matrix(1 0 0 1 0 2179.491)">
		<stop  offset="0" style="stop-color:#5CDCEE"/>
		<stop  offset="0.2859" style="stop-color:#59DCEF"/>
		<stop  offset="0.4617" style="stop-color:#51DBF0"/>
		<stop  offset="0.6078" style="stop-color:#42DBF3"/>
		<stop  offset="0.7375" style="stop-color:#2EDAF7"/>
		<stop  offset="0.8553" style="stop-color:#14D9FD"/>
		<stop  offset="0.8989" style="stop-color:#08D8FF"/>
	</linearGradient>
	<path class="st45" d="M243.3,1469.5c0,0,21.8,29.6,45.3-2.5l19.8,52l-15.3,4.9l-7.8-17.7c0,0,3.4,65.6,9,74.5l-58.7-15.2
		c0,0,8.7-49.2,4.7-61.3l-12.5,10.9l-12.1-17.1L243.3,1469.5z"/>
	
		<linearGradient id="SVGID_15_" gradientUnits="userSpaceOnUse" x1="200.6" y1="-645.2909" x2="291.9" y2="-645.2909" gradientTransform="matrix(1 0 0 1 0 2179.491)">
		<stop  offset="0" style="stop-color:#5CFFEE"/>
		<stop  offset="0.2859" style="stop-color:#59FEEF"/>
		<stop  offset="0.4617" style="stop-color:#51FAF0"/>
		<stop  offset="0.6078" style="stop-color:#42F3F3"/>
		<stop  offset="0.7375" style="stop-color:#2EEAF7"/>
		<stop  offset="0.8553" style="stop-color:#14DDFD"/>
		<stop  offset="0.8989" style="stop-color:#08D8FF"/>
	</linearGradient>
	<path class="st46" d="M228.2,1479.5c0,0,21.7,32.6,45.1,0.5l18.6,55.3l-16.6,1.3l-5.1-20.5c0,0-2.9,63.9,2.7,72.8l-52.4-13.6
		c0,0,8.7-49.2,4.7-61.3l-12.5,10.9l-12.1-17.1L228.2,1479.5z"/>
	<polygon class="st40" points="204.8,1716.9 204.8,1492.1 404.2,1381.8 402,1599 392,1604.1 391.1,1404.9 214.8,1502.2 
		214.8,1713.4 	"/>
	<polygon class="st29" points="199.4,1486.7 392,1379.5 404.2,1381.8 204.8,1492.1 	"/>
	<polyline class="st29" points="204.8,1492.1 199.4,1486.7 201.9,1714.5 204.8,1716.9 	"/>
	
		<linearGradient id="SVGID_16_" gradientUnits="userSpaceOnUse" x1="518" y1="-480.591" x2="612.8" y2="-480.591" gradientTransform="matrix(1 0 0 1 0 2179.491)">
		<stop  offset="6.926126e-08" style="stop-color:#00DEE0"/>
		<stop  offset="0.5501" style="stop-color:#00DCE2"/>
		<stop  offset="0.764" style="stop-color:#02D6E9"/>
		<stop  offset="0.9187" style="stop-color:#05CBF5"/>
		<stop  offset="1" style="stop-color:#08C2FF"/>
	</linearGradient>
	<polygon class="st47" points="518,1645.1 518,1752.7 612.8,1699.9 	"/>
	<path class="st48" d="M427.4,1806.7"/>
	<polygon class="st40" points="579.7,1609.5 518,1645.1 612.8,1699.9 671.6,1663.4 	"/>
	<polygon class="st40" points="456.5,1823.4 414.1,1799.7 454.4,1908.9 702,1754 699.9,1678.8 	"/>
	<polyline class="st40" points="597.3,1690.9 411.7,1799.7 456.5,1823.4 699.9,1678.8 671.8,1663.4 	"/>
	
		<linearGradient id="SVGID_17_" gradientUnits="userSpaceOnUse" x1="413.7196" y1="-380.6989" x2="453.8663" y2="-270.3967" gradientTransform="matrix(1 0 0 1 0 2179.491)">
		<stop  offset="2.717173e-07" style="stop-color:#1CF0E0"/>
		<stop  offset="0.5052" style="stop-color:#1BEEE1"/>
		<stop  offset="0.7016" style="stop-color:#18E7E6"/>
		<stop  offset="0.8442" style="stop-color:#13DBEE"/>
		<stop  offset="0.96" style="stop-color:#0BCAFA"/>
		<stop  offset="1" style="stop-color:#08C2FF"/>
	</linearGradient>
	<polygon class="st49" points="411.5,1799.6 411.5,1884.9 454.4,1908.9 456.2,1823.3 	"/>
	<polyline class="st50" points="541.5,1642.1 543.1,1641.3 578.1,1622 614.8,1642.1 578.1,1664.6 	"/>
	<polyline class="st51" points="542.5,1640.1 544.1,1639.3 579.1,1620 615.8,1640.1 579.1,1662.6 	"/>
	<polyline class="st52" points="543.5,1638.1 545.1,1637.3 580.1,1618 616.8,1638.1 580.1,1660.6 	"/>
	<polyline class="st53" points="544.5,1636.1 546.1,1635.3 581.1,1616 617.8,1636.1 581.1,1658.6 	"/>
	<path class="st54" d="M581.9,1627.4l8.7-0.7l0.4,5.6l12.3-4.2c0,0-8.4-1.8-10.7-3.3s-4-4.9-4-4.9l-6.7,7"/>
	<path class="st50" d="M588.7,1620c0,0,9.3,2.7,14.7,8.2C603.3,1628.2,589.8,1626.7,588.7,1620z"/>
	<path class="st54" d="M589,1621.2c0,0,5.7,0.6,13.2,6.8l1.2,0.3c0,0-4.9-5.4-14.7-8.3L589,1621.2z"/>
	<polyline class="st55" points="602.3,1677.5 603.9,1676.6 638.9,1657.3 675.5,1677.5 638.9,1699.9 	"/>
	<polyline class="st56" points="603.3,1675.5 604.9,1674.6 639.9,1655.3 676.5,1675.5 639.9,1697.9 	"/>
	<polyline class="st57" points="604.3,1673.5 605.9,1672.6 640.9,1653.3 677.5,1673.5 640.9,1695.9 	"/>
	<polyline class="st40" points="605.3,1671.5 606.9,1670.6 641.9,1651.3 678.5,1671.5 641.9,1693.9 	"/>
	<path class="st58" d="M642.7,1662.7l8.7-0.7l0.4,5.6l12.3-4.2c0,0-8.4-1.8-10.7-3.3s-4-4.9-4-4.9l-6.7,7"/>
	<path class="st55" d="M649.4,1655.3c0,0,9.3,2.7,14.7,8.2C664.1,1663.5,650.6,1662,649.4,1655.3z"/>
	<path class="st58" d="M649.7,1656.5c0,0,5.7,0.6,13.2,6.8l1.2,0.3c0,0-4.9-5.4-14.7-8.3L649.7,1656.5z"/>
	<path class="st59" d="M596.4,1731.4c0,0-5.7-4.9-12.1-9.3c-4.6-3.2-9.5-6.2-12.9-7.1c-8.1-2.1-8.4,7.1-8.4,7.1l7.5,3.5l13.4,14.8"
		/>
	<path class="st50" d="M563.2,1722.1l6.1,5.7l14.6,12.5l-13.4-14.7c0-0.1-0.1-0.1-0.2-0.1L563.2,1722.1z"/>
	<path class="st52" d="M583.7,1732.2l-3.7-0.8c0,0-3.8-0.9-4.5-2.9l0.2,2.7l8.3,9.2L583.7,1732.2z"/>
	<path class="st60" d="M587,1728l-0.2-4.8c0,0,3.7,2.7,5.8,2.8l-5.5,3.5L587,1728z"/>
	<path class="st50" d="M575.6,1728.7c0,0,2.7-6.1,11.2-5.5l0.3,6.3l-2.9,2.1l-0.5,1C583.7,1732.6,576.5,1731.2,575.6,1728.7z"/>
	<path class="st52" d="M583.9,1740.3c0,0-2.1-8.1,2.8-11.4c6.9-4.7,9.7-2.7,9.8,2.4L583.9,1740.3z"/>
	<path class="st59" d="M576.7,1742c0,0-5.7-4.9-12.1-9.3c-4.6-3.2-9.5-6.2-12.9-7.1c-8.1-2.1-8.4,7.1-8.4,7.1l7,4.2l13.9,14.1"/>
	<path class="st50" d="M543.5,1732.7l5.6,6.2l15.1,12c0,0-13.7-14.1-13.8-14.1L543.5,1732.7z"/>
	<path class="st52" d="M563.8,1741.7l-3.7-0.8c0,0-3.8-0.9-4.5-2.9l0.2,2.7l8.3,9.2L563.8,1741.7z"/>
	<path class="st60" d="M567.2,1738.6l-0.2-4.8c0,0,3.7,2.7,5.8,2.8l-5.5,3.5L567.2,1738.6z"/>
	<path class="st50" d="M555.9,1739.4c0,0,2.7-6.1,11.2-5.5l0.3,6.3l-2.9,2.1l-0.5,1C564,1743.3,556.8,1741.9,555.9,1739.4z"/>
	<path class="st52" d="M564.1,1749.9c0,0-2.1-7,2.8-10.3c6.9-4.7,9.7-2.7,9.8,2.4L564.1,1749.9z"/>
	<path class="st55" d="M534.8,1765.6c0,0-5.7-4.9-12.1-9.3c-4.6-3.2-9.5-6.2-12.9-7.1c-8.1-2.1-8.4,7.1-8.4,7.1l7.5,3.5l13.4,14.8"
		/>
	<path class="st61" d="M501.6,1756.3l6.1,5.7l14.6,12.5l-13.4-14.7c0-0.1-0.1-0.1-0.2-0.1L501.6,1756.3z"/>
	<path class="st55" d="M522,1766.4l-3.7-0.8c0,0-3.8-0.9-4.5-2.9l0.2,2.7l8.3,9.2L522,1766.4z"/>
	<path class="st62" d="M525.4,1762.3l-0.2-4.8c0,0,3.7,2.7,5.8,2.8l-5.5,3.5L525.4,1762.3z"/>
	<path class="st63" d="M514,1763c0,0,2.7-6.1,11.2-5.5l0.3,6.3l-2.9,2.1l-0.5,1C522.1,1766.9,514.9,1765.5,514,1763z"/>
	<path class="st55" d="M522.3,1774.6c0,0-2.1-8.1,2.8-11.4c6.9-4.7,9.7-2.7,9.8,2.4L522.3,1774.6z"/>
	<path class="st55" d="M517.1,1777.3c0,0-5.7-4.9-12.1-9.3c-4.6-3.2-9.5-6.2-12.9-7.1c-8.1-2.1-8.4,7.1-8.4,7.1l7,4.2l13.9,14.1"/>
	<path class="st61" d="M483.9,1768l5.6,6.2l15.1,12c0,0-13.7-14.1-13.8-14.1L483.9,1768z"/>
	<path class="st55" d="M504.1,1777l-3.7-0.8c0,0-3.8-0.9-4.5-2.9l0.2,2.7l8.3,9.2L504.1,1777z"/>
	<path class="st62" d="M507.6,1773.9l-0.2-4.8c0,0,3.7,2.7,5.8,2.8l-5.5,3.5L507.6,1773.9z"/>
	<path class="st63" d="M496.3,1774.7c0,0,2.7-6.1,11.2-5.5l0.3,6.3l-2.9,2.1l-0.5,1C504.4,1778.6,497.2,1777.2,496.3,1774.7z"/>
	<path class="st55" d="M504.5,1785.1c0,0-2.1-7,2.8-10.3c6.9-4.7,9.7-2.7,9.8,2.4L504.5,1785.1z"/>
	<polygon class="st52" points="546.6,1734.6 556.3,1727.5 557.6,1728.5 547.4,1735.3 	"/>
	<polyline class="st52" points="550,1736.7 559.2,1729.2 560.4,1730.2 551.1,1737.7 550.4,1736.9 	"/>
	<polygon class="st52" points="562.5,1722.2 572,1714.8 573.5,1715.5 564.1,1722.2 	"/>
	<polygon class="st52" points="566.5,1723.4 574.7,1716.2 575.8,1716.8 567.3,1723.9 	"/>
	<polygon class="st61" points="503.4,1757.2 513.2,1750.5 514.2,1751 504.5,1757.7 	"/>
	<polyline class="st61" points="506.9,1758.8 515.6,1752.1 517.1,1752.6 507.7,1759.2 506.6,1758.7 	"/>
	<polyline class="st61" points="485,1768.7 495,1761.9 496,1762.7 485.2,1769.5 485,1769.1 	"/>
	<polyline class="st61" points="487.6,1770.3 498.6,1763.8 500.2,1764.8 488,1771 487.6,1770.7 	"/>
	
		<linearGradient id="SVGID_18_" gradientUnits="userSpaceOnUse" x1="504.6" y1="-734.541" x2="642.7" y2="-734.541" gradientTransform="matrix(1 0 0 1 0 2179.491)">
		<stop  offset="0" style="stop-color:#A1FFCF"/>
		<stop  offset="0.6084" style="stop-color:#33FF48"/>
		<stop  offset="1" style="stop-color:#2EFF42"/>
	</linearGradient>
	<polygon class="st64" points="504.6,1493.7 631.9,1562.3 642.7,1396.2 510.4,1327.6 	"/>
	<polygon class="st65" points="523.7,1334.5 518,1484.2 504.6,1493.7 510.4,1326.6 	"/>
	<polygon class="st66" points="518,1484.2 633,1544.9 631.9,1562.3 504.6,1493.7 	"/>
	
		<linearGradient id="SVGID_19_" gradientUnits="userSpaceOnUse" x1="512.7" y1="-738.491" x2="644.6" y2="-738.491" gradientTransform="matrix(1 0 0 1 0 2179.491)">
		<stop  offset="0" style="stop-color:#04FA3E"/>
		<stop  offset="0.2236" style="stop-color:#03F649"/>
		<stop  offset="0.6371" style="stop-color:#01F259"/>
		<stop  offset="0.9698" style="stop-color:#00F05E"/>
	</linearGradient>
	<polyline class="st67" points="513.4,1399.3 644.6,1467.1 643.1,1482.7 512.7,1415 	"/>
	
		<linearGradient id="SVGID_20_" gradientUnits="userSpaceOnUse" x1="561.8" y1="-745.441" x2="582.2" y2="-745.441" gradientTransform="matrix(1 0 0 1 0 2179.491)">
		<stop  offset="0.157" style="stop-color:#08FA3E"/>
		<stop  offset="0.3728" style="stop-color:#05F64A"/>
		<stop  offset="0.7866" style="stop-color:#00F05E"/>
	</linearGradient>
	<polygon class="st68" points="561.8,1517 569.6,1344.9 582.2,1352.2 574.6,1523.2 	"/>
</g>
<g>
	
		<linearGradient id="SVGID_21_" gradientUnits="userSpaceOnUse" x1="-140" y1="-265.3695" x2="53" y2="-265.3695" gradientTransform="matrix(1 0 0 1 0 2179.491)">
		<stop  offset="5.700000e-02" style="stop-color:#3FA9F5"/>
		<stop  offset="0.738" style="stop-color:#02F2F4"/>
	</linearGradient>
	<path class="st69" d="M-137.1,1946.9c0,0,40.2,20.4,94.3,14s78.6-24.6,94.7-55.6l1.1-39.2c0,0-1.1,33.6-60.5,58.3
		c-15.9,3.9-32.6,5.8-48.9,6.4c-11.2,0.5-22.4,0.1-33.5-1.3c-5.6-0.7-11.2-1.7-16.7-3c-4.4-1-8.6-2.9-13.2-3.5
		c-3.9-0.5-7.6,0.6-11.1,2.1c-2.1,0.9-7.2,3.6-9.1,1.3l8.7,10.8L-137.1,1946.9z"/>
	<path class="st28" d="M-121.2,1925.3c0,0,35.8,16.4,105,1.5c13.2-2.8,26.2-7.2,37.6-14.4c7.7-4.9,14.7-11.1,19.8-18.7
		c3.9-5.8,7-12.6,8.3-19.5c2-10.5-1.8-20.6-7.2-29.4c-3.3-5.5-7.5-10.5-12.1-14.9c-6.1-5.7-13.1-10.4-20.6-14.1
		c-9.9-4.9-20.5-8.2-31.3-10.4c-13.4-2.7-27-3.8-40.7-3.9c-72.5-0.4-98.3,28.7-107.4,47.7c-3.3,6.9-4.9,14.4-4.9,22v21
		c0,14.6,6.1,28.5,16.9,38.4c0.2,0.2,0.3,0.3,0.3,0.3"/>
	<path class="st29" d="M-120.6,1922.2c0,0-49.5-15.1-54.1-57v41.3c0,0,7.1,23.8,38.6,40.4L-120.6,1922.2z"/>
	
		<linearGradient id="SVGID_22_" gradientUnits="userSpaceOnUse" x1="-337" y1="-180.0409" x2="-161.4" y2="-180.0409" gradientTransform="matrix(1 0 0 1 0 2179.491)">
		<stop  offset="0" style="stop-color:#00F4F4"/>
		<stop  offset="0.1659" style="stop-color:#02F2F4"/>
		<stop  offset="1" style="stop-color:#3FA9F5"/>
	</linearGradient>
	<polygon class="st70" points="-337,2005.9 -337,2032.3 -310.2,2054.6 -161.4,1969.9 -161.5,1944.3 -310.2,2024.5 	"/>
	<g>
		
			<linearGradient id="SVGID_23_" gradientUnits="userSpaceOnUse" x1="-337" y1="-204.8409" x2="-161.5" y2="-204.8409" gradientTransform="matrix(1 0 0 1 0 2179.491)">
			<stop  offset="5.700000e-02" style="stop-color:#3FA9F5"/>
			<stop  offset="7.580000e-02" style="stop-color:#3CADF5"/>
			<stop  offset="0.25" style="stop-color:#23CBF5"/>
			<stop  offset="0.421" style="stop-color:#11E1F4"/>
			<stop  offset="0.586" style="stop-color:#06EEF4"/>
			<stop  offset="0.738" style="stop-color:#02F2F4"/>
		</linearGradient>
		<polygon class="st71" points="-310.2,2029.8 -161.5,1944.3 -187.1,1919.5 -337,2005.9 		"/>
		
			<linearGradient id="SVGID_24_" gradientUnits="userSpaceOnUse" x1="-183.6" y1="-255.141" x2="-139.1" y2="-255.141" gradientTransform="matrix(1 0 0 1 0 2179.491)">
			<stop  offset="5.700000e-02" style="stop-color:#3FA9F5"/>
			<stop  offset="7.580000e-02" style="stop-color:#3CADF5"/>
			<stop  offset="0.25" style="stop-color:#23CBF5"/>
			<stop  offset="0.421" style="stop-color:#11E1F4"/>
			<stop  offset="0.586" style="stop-color:#06EEF4"/>
			<stop  offset="0.738" style="stop-color:#02F2F4"/>
		</linearGradient>
		<polygon class="st72" points="-165.5,1940.5 -139.1,1926.4 -158.3,1908.2 -183.6,1922.8 		"/>
	</g>
	<polygon class="st29" points="-139.1,1926.4 -139.1,1946.9 -161.5,1959.4 -165.5,1940.5 	"/>
	<path class="st33" d="M-119.8,1922.6c0,0-46.2-10.9-54.9-57.4"/>
	
		<linearGradient id="SVGID_25_" gradientUnits="userSpaceOnUse" x1="-171" y1="-343.7187" x2="46.7" y2="-343.7187" gradientTransform="matrix(1 0 0 1 0 2179.491)">
		<stop  offset="5.700000e-02" style="stop-color:#3FA9F5"/>
		<stop  offset="0.1203" style="stop-color:#49B7F5"/>
		<stop  offset="0.2649" style="stop-color:#5CD1F4"/>
		<stop  offset="0.4138" style="stop-color:#69E3F4"/>
		<stop  offset="0.5684" style="stop-color:#71EEF4"/>
		<stop  offset="0.738" style="stop-color:#74F2F4"/>
	</linearGradient>
	<path class="st73" d="M-171,1864.1c0,0,107.9-89.3,217.7,2.1c0,0-6.7-59.1-102.1-60.8C-147.3,1803.7-165.2,1841.6-171,1864.1z"/>
</g>
<path class="st35" d="M-97.4,1836.7l-14.1-11.5c0,0,72.8-14.6,111.6,3l-14,22.1C-14,1850.4-35.6,1835.2-97.4,1836.7z"/>
<path class="st35" d="M-121.3,1828.9c0,0-13.5,0-18.3,9.2l8.7,8.2c0,0,7.9-4.6,10.3-5.2s13-1.2,13-1.2L-121.3,1828.9z"/>
<g>
	<path d="M350.5,208.2c38.1,0,70.8,13.8,98.2,41.3c27.4,27.6,41.1,61.2,41.1,100.8c0,39.3-13.5,72.5-40.6,99.7
		c-27,27.2-59.8,40.8-98.4,40.8c-40.4,0-74-14-100.7-41.9S210,387.8,210,349.4c0-25.7,6.2-49.4,18.7-71
		c12.4-21.6,29.6-38.7,51.4-51.3C301.9,214.5,325.4,208.2,350.5,208.2z M350,258.3c-24.9,0-45.9,8.7-62.8,26
		c-17,17.3-25.5,39.3-25.5,66c0,29.8,10.7,53.3,32.1,70.6c16.6,13.5,35.7,20.3,57.1,20.3c24.3,0,45-8.8,62.1-26.3
		c17.1-17.6,25.6-39.2,25.6-64.9c0-25.6-8.6-47.3-25.8-65C395.6,267.2,374.6,258.3,350,258.3z"/>
</g>
<g>
	<path d="M316.1,301c-62.7,11.4-105.9,46.4-105.9,46.4c38.2,26.8,73.1,41.8,104.4,48.9c-10.2-11.7-16.7-28.3-16.7-46.8
		C297.9,330.1,305,312.7,316.1,301z"/>
	<path d="M489.6,347.4c-36.7-29.4-73.3-43.5-107.4-48.1c12.1,11.7,19.9,29.8,19.9,50.2c0,20.7-8.1,39.1-20.5,50.8
		C450.9,392.2,489.7,347.4,489.6,347.4z"/>
</g>
<circle class="st74" cx="350" cy="349.5" r="40.4"/>
</svg>
